<svg xmlns="http://www.w3.org/2000/svg" width="633.216" height="652" viewBox="0 0 633.216 652">
  <path id="Path_28" data-name="Path 28" d="M563.8,512,826.3,199.1a7.952,7.952,0,0,0-6.1-13.1H740.4a16.29,16.29,0,0,0-12.3,5.7L511.6,449.8,295.1,191.7a15.981,15.981,0,0,0-12.3-5.7H203a7.952,7.952,0,0,0-6.1,13.1L459.4,512,196.9,824.9A7.95,7.95,0,0,0,203,838h79.8a16.29,16.29,0,0,0,12.3-5.7L511.6,574.2,728.1,832.3a15.981,15.981,0,0,0,12.3,5.7h79.8a7.952,7.952,0,0,0,6.1-13.1Z" transform="translate(-194.992 -186)" stroke="#000" stroke-width="0"/>
</svg>
