<svg xmlns="http://www.w3.org/2000/svg" width="800" height="704" viewBox="0 0 800 704">
  <path id="Path_27" data-name="Path 27" d="M904,160H120a8.024,8.024,0,0,0-8,8v64a8.024,8.024,0,0,0,8,8H904a8.024,8.024,0,0,0,8-8V168A8.024,8.024,0,0,0,904,160Zm0,624H120a8.024,8.024,0,0,0-8,8v64a8.024,8.024,0,0,0,8,8H904a8.023,8.023,0,0,0,8-8V792A8.023,8.023,0,0,0,904,784Zm0-312H120a8.024,8.024,0,0,0-8,8v64a8.024,8.024,0,0,0,8,8H904a8.023,8.023,0,0,0,8-8V480A8.024,8.024,0,0,0,904,472Z" transform="translate(-112 -160)" stroke="#000" stroke-width="0"/>
</svg>
