<svg xmlns="http://www.w3.org/2000/svg" width="23.702" height="31.049" viewBox="0 0 23.702 31.049">
  <path id="Icon_open-star" data-name="Icon open-star" d="M3.328,0,2.5,2.5H0L2.08,4.16l-.832,2.5,2.08-1.664,2.08,1.664-.832-2.5L6.656,2.5H4.16Z" transform="matrix(-0.875, -0.485, 0.485, -0.875, 20.475, 9.049)" fill="#fff"/>
  <path id="Icon_open-star-2" data-name="Icon open-star" d="M3.328,0,2.5,2.5H0L2.08,4.16l-.832,2.5,2.08-1.664,2.08,1.664-.832-2.5L6.656,2.5H4.16Z" transform="matrix(-0.875, -0.485, 0.485, -0.875, 13.475, 31.049)" fill="#fff"/>
  <circle id="Ellipse_179" data-name="Ellipse 179" cx="1" cy="1" r="1" transform="translate(0 9.063)" fill="#fff"/>
  <circle id="Ellipse_180" data-name="Ellipse 180" cx="1" cy="1" r="1" transform="translate(15 15.063)" fill="#fff"/>
</svg>
