<svg xmlns="http://www.w3.org/2000/svg" width="1921.512" height="2016.805" viewBox="0 0 1921.512 2016.805">
  <g id="bg" transform="translate(1.855 0.249)">
    <path id="Path_119" data-name="Path 119" d="M7210.651,827.329s-172.417,74.888-299.064,197.652-249.211,313.524-297.445,482.344S6421.2,1812.809,6461.4,1965.552c1.527,5.8,30.38,0,30.38,0h718.872Z" transform="translate(-5291.43 48.425)" fill="#f2eafb"/>
    <path id="Path_118" data-name="Path 118" d="M8103.2,351S8147.871,551,8076.813,701.1s-7.9,292.288-268.442,355.485S7255.7,1293.572,7082,1293.572c-32.829,0-74.611-.664-74.611-.664v-5.091L7008,351Z" transform="translate(-7007.389 -349.863)" fill="#f2eafb"/>
    <circle id="Ellipse_104" data-name="Ellipse 104" cx="84" cy="84" r="84" transform="translate(1751.657 -0.249)" fill="#d6d9ff" opacity="0.56"/>
    <ellipse id="Ellipse_135" data-name="Ellipse 135" cx="31.5" cy="32" rx="31.5" ry="32" transform="translate(1678.657 864.751)" fill="#f6c8ff" opacity="0.56"/>
    <circle id="Ellipse_138" data-name="Ellipse 138" cx="13.5" cy="13.5" r="13.5" transform="translate(1681.657 526.751)" fill="#f6c8ff" opacity="0.56"/>
    <circle id="Ellipse_110" data-name="Ellipse 110" cx="35.5" cy="35.5" r="35.5" transform="translate(167 122)" fill="#d6d9ff" opacity="0.56"/>
    <circle id="Ellipse_41" data-name="Ellipse 41" cx="121" cy="121" r="121" transform="translate(718 889)" fill="#d613ff" opacity="0.23"/>
    <circle id="Ellipse_93" data-name="Ellipse 93" cx="16.5" cy="16.5" r="16.5" transform="translate(481 183)" fill="#d6d9ff" opacity="0.56"/>
    <circle id="Ellipse_143" data-name="Ellipse 143" cx="16.5" cy="16.5" r="16.5" transform="translate(60 1425)" fill="#d6d9ff" opacity="0.56"/>
    <circle id="Ellipse_139" data-name="Ellipse 139" cx="16.5" cy="16.5" r="16.5" transform="translate(1606 255)" fill="#d6d9ff" opacity="0.56"/>
    <circle id="Ellipse_112" data-name="Ellipse 112" cx="14" cy="14" r="14" transform="translate(717 217)" fill="#d6d9ff" opacity="0.56"/>
    <circle id="Ellipse_142" data-name="Ellipse 142" cx="14" cy="14" r="14" transform="translate(296 1459)" fill="#d6d9ff" opacity="0.56"/>
    <circle id="Ellipse_140" data-name="Ellipse 140" cx="14" cy="14" r="14" transform="translate(1864 309)" fill="#d6d9ff" opacity="0.56"/>
    <path id="Path_121" data-name="Path 121" d="M168.5,0A168.5,168.5,0,1,1,97.053,321.147c-.573-.268-1.908-.908-1.908-.908L96.966,17.524s-.574-1.36,0-1.63A167.52,167.52,0,0,1,168.5,0Z" transform="translate(-97 968)" fill="#b7bcff" opacity="0.56"/>
    <circle id="Ellipse_117" data-name="Ellipse 117" cx="54.5" cy="54.5" r="54.5" transform="translate(960 611)" fill="#f6c8ff" opacity="0.56"/>
    <circle id="Ellipse_141" data-name="Ellipse 141" cx="54.5" cy="54.5" r="54.5" transform="translate(539 1853)" fill="#f6c8ff" opacity="0.56"/>
    <ellipse id="Ellipse_136" data-name="Ellipse 136" cx="26" cy="25.5" rx="26" ry="25.5" transform="translate(1146 865)" fill="#d6d9ff" opacity="0.56"/>
    <ellipse id="Ellipse_137" data-name="Ellipse 137" cx="10.5" cy="10" rx="10.5" ry="10" transform="translate(1293 20)" fill="#ffdce7" opacity="0.56"/>
  </g>
</svg>
