<svg xmlns="http://www.w3.org/2000/svg" width="1921.81" height="2010.781" viewBox="0 0 1921.81 2010.781">
  <path id="Path_119" data-name="Path 119" d="M7211.867,785.987S7040.211,824,6911.586,1024.981s-249.211,313.524-297.445,482.344-136.573,279.336-151.079,447.508c-.58,6.727,0,7.275,0,7.275h748.8Z" transform="translate(-5290.057 48.674)" fill="#2c0658"/>
  <path id="Path_118" data-name="Path 118" d="M8104.642,351.462S8148.513,551,8077.416,701.1s-7.9,292.288-268.589,355.485-552.977,236.99-726.77,236.99c-28.85,0-73.7-6.144-73.7-6.144l2.378-935.965Z" transform="translate(-7006.642 -349.614)" fill="#2c0658"/>
  <circle id="Ellipse_104" data-name="Ellipse 104" cx="84" cy="84" r="84" transform="translate(1753.031)" fill="#d9b9ff" opacity="0.56"/>
  <ellipse id="Ellipse_135" data-name="Ellipse 135" cx="31.5" cy="32" rx="31.5" ry="32" transform="translate(1680.031 865)" fill="#d9b9ff" opacity="0.56"/>
  <circle id="Ellipse_138" data-name="Ellipse 138" cx="13.5" cy="13.5" r="13.5" transform="translate(1683.031 527)" fill="#f6c8ff" opacity="0.56"/>
  <circle id="Ellipse_110" data-name="Ellipse 110" cx="35.5" cy="35.5" r="35.5" transform="translate(168.373 122.249)" fill="#d9b9ff" opacity="0.56"/>
  <circle id="Ellipse_41" data-name="Ellipse 41" cx="121" cy="121" r="121" transform="translate(719.373 889.249)" fill="#d9b9ff" opacity="0.23"/>
  <circle id="Ellipse_93" data-name="Ellipse 93" cx="16.5" cy="16.5" r="16.5" transform="translate(482.373 183.249)" fill="#d9b9ff" opacity="0.56"/>
  <circle id="Ellipse_143" data-name="Ellipse 143" cx="16.5" cy="16.5" r="16.5" transform="translate(61.373 1425.249)" fill="#d9b9ff" opacity="0.56"/>
  <circle id="Ellipse_139" data-name="Ellipse 139" cx="16.5" cy="16.5" r="16.5" transform="translate(1607.373 255.249)" fill="#d9b9ff" opacity="0.56"/>
  <circle id="Ellipse_112" data-name="Ellipse 112" cx="14" cy="14" r="14" transform="translate(718.373 217.249)" fill="#d9b9ff" opacity="0.56"/>
  <circle id="Ellipse_142" data-name="Ellipse 142" cx="14" cy="14" r="14" transform="translate(297.373 1459.249)" fill="#d9b9ff" opacity="0.56"/>
  <circle id="Ellipse_140" data-name="Ellipse 140" cx="14" cy="14" r="14" transform="translate(1865.373 309.249)" fill="#d9b9ff" opacity="0.56"/>
  <path id="Path_395" data-name="Path 395" d="M168.5,0A168.5,168.5,0,1,1,97.053,321.147c-3.208-1.5,0-11.654,0-11.654V28.409s-3.231-11.038.043-12.576A167.651,167.651,0,0,1,168.5,0Z" transform="translate(-95.627 968.249)" fill="#d9b9ff" opacity="0.56"/>
  <circle id="Ellipse_117" data-name="Ellipse 117" cx="54.5" cy="54.5" r="54.5" transform="translate(961.373 611.249)" fill="#d9b9ff" opacity="0.56"/>
  <circle id="Ellipse_141" data-name="Ellipse 141" cx="54.5" cy="54.5" r="54.5" transform="translate(540.373 1853.249)" fill="#d9b9ff" opacity="0.56"/>
  <ellipse id="Ellipse_136" data-name="Ellipse 136" cx="26" cy="25.5" rx="26" ry="25.5" transform="translate(1147.373 865.249)" fill="#d9b9ff" opacity="0.56"/>
  <ellipse id="Ellipse_137" data-name="Ellipse 137" cx="10.5" cy="10" rx="10.5" ry="10" transform="translate(1294.373 20.249)" fill="#ffdce7" opacity="0.56"/>
  <circle id="Ellipse_23" data-name="Ellipse 23" cx="2" cy="2" r="2" transform="translate(1289.373 1218.249)" fill="#fff"/>
</svg>
