<svg xmlns="http://www.w3.org/2000/svg" xmlns:xlink="http://www.w3.org/1999/xlink" width="663.304" height="265.731" viewBox="0 0 663.304 265.731">
  <defs>
    <radialGradient id="radial-gradient" cx="-0.218" cy="-0.547" r="1.601" gradientTransform="translate(-0.295) scale(1.59 1)" gradientUnits="objectBoundingBox">
      <stop offset="0.117" stop-color="#1d0075"/>
      <stop offset="1" stop-color="#451bde" stop-opacity="0"/>
    </radialGradient>
    <radialGradient id="radial-gradient-2" cx="0.984" cy="-0.581" r="1.401" gradientTransform="matrix(1, 0, 0, 1, 0, 0)" xlink:href="#radial-gradient"/>
    <radialGradient id="radial-gradient-3" cx="-0.882" cy="-0.024" r="1.577" gradientTransform="translate(-0.186) scale(1.371 1)" xlink:href="#radial-gradient"/>
    <radialGradient id="radial-gradient-4" cx="-0.305" cy="-0.373" r="1.501" gradientTransform="translate(0.039) scale(0.922 1)" xlink:href="#radial-gradient"/>
    <radialGradient id="radial-gradient-5" cx="-0.084" cy="-0.637" r="1.656" gradientTransform="translate(-0.386) scale(1.773 1)" xlink:href="#radial-gradient"/>
    <radialGradient id="radial-gradient-6" cx="-0.353" cy="1.182" r="1.923" gradientTransform="translate(0.155) scale(0.69 1)" xlink:href="#radial-gradient"/>
    <radialGradient id="radial-gradient-7" cx="-0.673" cy="0.696" r="4.927" gradientTransform="translate(0.361) scale(0.278 1)" xlink:href="#radial-gradient"/>
    <radialGradient id="radial-gradient-8" cx="2.102" cy="1.385" r="1.388" gradientTransform="translate(-1.165) scale(3.329 1)" xlink:href="#radial-gradient"/>
  </defs>
  <text id="BETA" transform="translate(508.3 64)" fill="#394d6d" font-size="61" font-family="Poppins-Bold, Poppins" font-weight="700" letter-spacing="0.002em"><tspan x="0" y="0">BETA</tspan></text>
  <g id="SVG_2_JPG" transform="translate(-168.3 -319)">
    <g id="Group_358" data-name="Group 358" opacity="0.6">
      <rect id="Rectangle_658" data-name="Rectangle 658" width="159" height="133" transform="translate(507 319)" fill="none"/>
    </g>
    <g id="Group_359" data-name="Group 359">
      <path id="Path_427" data-name="Path 427" d="M526.7,564.1a6.882,6.882,0,0,1,5.2,2.2,7.727,7.727,0,0,1,2.2,5.4,7.318,7.318,0,0,1-2.2,5.4,6.882,6.882,0,0,1-5.2,2.2,6.285,6.285,0,0,1-5.5-2.9v2.5h-2.5V558.6h2.5v8.3a6.2,6.2,0,0,1,5.5-2.8Zm-.3,12.8a5.123,5.123,0,1,0-3.7-1.5,4.975,4.975,0,0,0,3.7,1.5Z" fill="#394d6d"/>
      <path id="Path_428" data-name="Path 428" d="M546.7,564.4h2.7l-5.9,15.4a8.878,8.878,0,0,1-2.6,3.8,5.192,5.192,0,0,1-3.8,1.1v-2.4q2.7.15,3.9-3l.3-.5L535,564.3h2.7l4.8,11.1Z" fill="#394d6d"/>
      <path id="Path_429" data-name="Path 429" d="M566.6,566.9h-3.9v7.9a2.076,2.076,0,0,0,.4,1.5,1.728,1.728,0,0,0,1.3.5h2.2v2.3a8.042,8.042,0,0,1-4.9-.5c-1-.6-1.5-1.9-1.5-3.7V567h-2.9v-2.4h2.9v-3.3l2.5-.8v4.1h3.9Z" fill="#394d6d"/>
      <path id="Path_430" data-name="Path 430" d="M572.3,566.9a4.475,4.475,0,0,1,4.5-2.7v2.6a4.552,4.552,0,0,0-3.2,1,4.192,4.192,0,0,0-1.3,3.5V579h-2.5V564.5h2.5Z" fill="#394d6d"/>
      <path id="Path_431" data-name="Path 431" d="M590.5,564.4H593V579h-2.5v-2.5a6.285,6.285,0,0,1-5.5,2.9,6.882,6.882,0,0,1-5.2-2.2,7.727,7.727,0,0,1-2.2-5.4,7.318,7.318,0,0,1,2.2-5.4,7.036,7.036,0,0,1,5.2-2.2,6.285,6.285,0,0,1,5.5,2.9Zm-5.2,12.5a5.123,5.123,0,1,0-3.7-1.5A5.3,5.3,0,0,0,585.3,576.9Z" fill="#394d6d"/>
      <path id="Path_432" data-name="Path 432" d="M608.9,558.6h2.5V579h-2.5v-2.5a6.285,6.285,0,0,1-5.5,2.9,6.882,6.882,0,0,1-5.2-2.2,7.727,7.727,0,0,1-2.2-5.4,7.318,7.318,0,0,1,2.2-5.4,7.036,7.036,0,0,1,5.2-2.2,6.285,6.285,0,0,1,5.5,2.9Zm-5.2,18.3a5.123,5.123,0,1,0-3.7-1.5A5.3,5.3,0,0,0,603.7,576.9Z" fill="#394d6d"/>
      <path id="Path_433" data-name="Path 433" d="M617,572.9a4.655,4.655,0,0,0,1.8,3,5.625,5.625,0,0,0,3.5,1.1,4.637,4.637,0,0,0,4.2-2.1l2.2,1.2a7.029,7.029,0,0,1-6.4,3.3,7.31,7.31,0,0,1-5.6-2.2,7.618,7.618,0,0,1-2.2-5.5,7.707,7.707,0,0,1,2.1-5.5,7.089,7.089,0,0,1,5.5-2.2,6.673,6.673,0,0,1,5.2,2.3,8.01,8.01,0,0,1,2,5.4,4.1,4.1,0,0,1-.1,1.1H617Zm5.1-6.5a5.33,5.33,0,0,0-3.4,1.1,5.574,5.574,0,0,0-1.7,3.1h9.7a4.885,4.885,0,0,0-1.6-3.1,4.823,4.823,0,0,0-3-1.1Z" fill="#394d6d"/>
      <path id="Path_434" data-name="Path 434" d="M634.7,566.9a4.475,4.475,0,0,1,4.5-2.7v2.6a4.552,4.552,0,0,0-3.2,1,4.192,4.192,0,0,0-1.3,3.5V579h-2.5V564.5h2.5Z" fill="#394d6d"/>
      <path id="Path_435" data-name="Path 435" d="M643.4,568.3a1.478,1.478,0,0,0,.9,1.3,11.915,11.915,0,0,0,2,.8c.7.2,1.6.5,2.4.7a3.9,3.9,0,0,1,2,1.3,3.433,3.433,0,0,1,.8,2.5,3.934,3.934,0,0,1-1.5,3.2,6.053,6.053,0,0,1-3.9,1.2,6.87,6.87,0,0,1-3.6-.9,5.37,5.37,0,0,1-2.2-2.5l2.2-1.3a3.147,3.147,0,0,0,1.3,1.7,4.142,4.142,0,0,0,2.3.6,4.648,4.648,0,0,0,2.1-.5,1.645,1.645,0,0,0,.8-1.5,1.441,1.441,0,0,0-.8-1.3,19.5,19.5,0,0,0-2-.9c-.8-.2-1.6-.5-2.4-.7a3.9,3.9,0,0,1-2-1.3,3.188,3.188,0,0,1-.8-2.4,3.746,3.746,0,0,1,1.5-3.1,5.672,5.672,0,0,1,3.7-1.2,6.9,6.9,0,0,1,3.2.8,5.558,5.558,0,0,1,2.1,2.2l-2.1,1.2a3.136,3.136,0,0,0-3.1-1.9,3.453,3.453,0,0,0-1.8.5A1.5,1.5,0,0,0,643.4,568.3Z" fill="#394d6d"/>
      <path id="Path_436" data-name="Path 436" d="M658,576l-1.9,7.1h-2.2l1.2-7.1Z" fill="#394d6d"/>
      <path id="Path_437" data-name="Path 437" d="M676.3,560.7c-2.6-.2-3.8.9-3.8,3.3v.4h3.8v2.4h-3.8V579H670V566.9h-2.3v-2.4H670V564a5.531,5.531,0,0,1,1.6-4.4,6.3,6.3,0,0,1,4.7-1.3Z" fill="#394d6d"/>
      <path id="Path_438" data-name="Path 438" d="M689.7,577.1a7.6,7.6,0,0,1-13-5.4,7.017,7.017,0,0,1,2.2-5.4,7.637,7.637,0,0,1,10.8,10.8Zm-5.5-.2a5.2,5.2,0,0,0,0-10.4,4.91,4.91,0,0,0-3.6,1.5,5.313,5.313,0,0,0,0,7.4,4.91,4.91,0,0,0,3.6,1.5Z" fill="#394d6d"/>
      <path id="Path_439" data-name="Path 439" d="M697.4,566.9a4.475,4.475,0,0,1,4.5-2.7v2.6a4.552,4.552,0,0,0-3.2,1,4.192,4.192,0,0,0-1.3,3.5V579h-2.5V564.5h2.5Z" fill="#394d6d"/>
      <path id="Path_440" data-name="Path 440" d="M713.5,572.9a4.655,4.655,0,0,0,1.8,3,5.625,5.625,0,0,0,3.5,1.1,4.637,4.637,0,0,0,4.2-2.1l2.2,1.2a7.029,7.029,0,0,1-6.4,3.3,7.31,7.31,0,0,1-5.6-2.2,7.618,7.618,0,0,1-2.2-5.5,7.707,7.707,0,0,1,2.1-5.5,7.089,7.089,0,0,1,5.5-2.2,6.673,6.673,0,0,1,5.2,2.3,8.01,8.01,0,0,1,2,5.4,4.1,4.1,0,0,1-.1,1.1H713.5Zm5-6.5a5.331,5.331,0,0,0-3.4,1.1,5.574,5.574,0,0,0-1.7,3.1h9.7a4.884,4.884,0,0,0-1.6-3.1A4.617,4.617,0,0,0,718.5,566.4Z" fill="#394d6d"/>
      <path id="Path_441" data-name="Path 441" d="M738.2,564.4h2.7l-5.8,14.5h-3l-5.8-14.5H729l4.6,11.8Z" fill="#394d6d"/>
      <path id="Path_442" data-name="Path 442" d="M744.3,572.9a4.655,4.655,0,0,0,1.8,3,5.625,5.625,0,0,0,3.5,1.1,4.637,4.637,0,0,0,4.2-2.1l2.2,1.2a7.029,7.029,0,0,1-6.4,3.3,7.31,7.31,0,0,1-5.6-2.2,7.618,7.618,0,0,1-2.2-5.5,7.707,7.707,0,0,1,2.1-5.5,7.089,7.089,0,0,1,5.5-2.2,6.673,6.673,0,0,1,5.2,2.3,8.01,8.01,0,0,1,2,5.4,4.1,4.1,0,0,1-.1,1.1H744.3Zm5-6.5a5.331,5.331,0,0,0-3.4,1.1,5.574,5.574,0,0,0-1.7,3.1h9.7a4.884,4.884,0,0,0-1.6-3.1A4.426,4.426,0,0,0,749.3,566.4Z" fill="#394d6d"/>
      <path id="Path_443" data-name="Path 443" d="M762,566.9a4.475,4.475,0,0,1,4.5-2.7v2.6a4.552,4.552,0,0,0-3.2,1,4.192,4.192,0,0,0-1.3,3.5V579h-2.5V564.5H762Z" fill="#394d6d"/>
      <path id="Path_444" data-name="Path 444" d="M779.4,564.4h2.7l-5.9,15.4a8.878,8.878,0,0,1-2.6,3.8,5.192,5.192,0,0,1-3.8,1.1v-2.4q2.7.15,3.9-3l.3-.5-6.3-14.5h2.7l4.8,11.1Z" fill="#394d6d"/>
      <path id="Path_445" data-name="Path 445" d="M796,577.1a7.6,7.6,0,0,1-13-5.4,7.016,7.016,0,0,1,2.2-5.4A7.637,7.637,0,0,1,796,577.1Zm-5.5-.2a5.2,5.2,0,0,0,0-10.4,4.91,4.91,0,0,0-3.6,1.5,5.313,5.313,0,0,0,0,7.4,4.91,4.91,0,0,0,3.6,1.5Z" fill="#394d6d"/>
      <path id="Path_446" data-name="Path 446" d="M808.4,564.1a5.279,5.279,0,0,1,4.1,1.6,6.178,6.178,0,0,1,1.5,4.4V579h-2.5v-8.8a3.337,3.337,0,0,0-1-2.7,3.252,3.252,0,0,0-2.6-1,4.143,4.143,0,0,0-3.1,1.2,4.889,4.889,0,0,0-1.2,3.6V579h-2.5V564.5h2.5v2.1a5.325,5.325,0,0,1,4.8-2.5Z" fill="#394d6d"/>
      <path id="Path_447" data-name="Path 447" d="M819.3,572.9a4.655,4.655,0,0,0,1.8,3,5.625,5.625,0,0,0,3.5,1.1,4.637,4.637,0,0,0,4.2-2.1l2.2,1.2a7.029,7.029,0,0,1-6.4,3.3,7.309,7.309,0,0,1-5.6-2.2,7.618,7.618,0,0,1-2.2-5.5,7.707,7.707,0,0,1,2.1-5.5,7.089,7.089,0,0,1,5.5-2.2,6.673,6.673,0,0,1,5.2,2.3,8.01,8.01,0,0,1,2,5.4,4.1,4.1,0,0,1-.1,1.1H819.3Zm5.1-6.5a5.331,5.331,0,0,0-3.4,1.1,5.574,5.574,0,0,0-1.7,3.1H829a4.884,4.884,0,0,0-1.6-3.1,4.617,4.617,0,0,0-3-1.1Z" fill="#394d6d"/>
    </g>
    <g id="Group_367" data-name="Group 367">
      <path id="Path_448" data-name="Path 448" d="M484.7,445.6c-.1,0-.1,0-.2.1a22.71,22.71,0,0,0-16.4,21.9v64.5c-.1,7.4,2.9,11.2,9.1,11.8a93.291,93.291,0,0,0,17.5.1V531.4h-5.1c-3.2,0-4.9-1.5-4.9-4.2v-30h2.9a8.05,8.05,0,0,0,8.2-8.2v-4.8H484.6V445.6Z" fill="#731bde"/>
      <path id="Path_449" data-name="Path 449" d="M270.1,512.1c0,22.7-10.1,34.2-30.1,34.2s-29.9-11.5-29.9-34.2c0-23,10-34.3,29.9-34.3S270.1,489.2,270.1,512.1Zm-43.1,0c.1,12.8,4.5,19.3,13,19.3s12.7-6.7,12.8-19.8c0-12.8-4.2-19.2-12.7-19.2C231.3,492.4,227,499,227,512.1Z" fill="#731bde"/>
      <path id="Path_450" data-name="Path 450" d="M308.3,546.3c-20,0-30.2-11.5-30.7-34.2,0-22.6,10.1-33.9,30.4-34.3,16,0,25.4,7.1,28.3,21.5H318.2c-2-4.5-5.5-6.9-10.7-6.9-8.7,0-13.1,6.6-13.1,19.7s4.6,19.7,13.8,19.6a13.041,13.041,0,0,0,10-4.7,7.73,7.73,0,0,1,5.6-2.4h12.5C333.4,538.1,323.6,546.7,308.3,546.3Z" fill="#731bde"/>
      <path id="Path_451" data-name="Path 451" d="M430.5,546.3c-20-.6-29.9-12.2-29.9-34.7s10.1-33.7,30.2-33.8c21,0,30.8,12.8,29.6,38.7H417.7c.6,10.1,5,15.2,13.1,15.2a15.157,15.157,0,0,0,10.7-4.7,7.413,7.413,0,0,1,5.6-2.4h12.2C455.7,538.6,446.7,546.3,430.5,546.3Zm-12.6-41.7h24.8c-1-8.7-5.1-13.2-12.2-13.2s-11.3,4.5-12.6,13.2Z" fill="#731bde"/>
      <g id="Group_365" data-name="Group 365">
        <path id="Path_452" data-name="Path 452" d="M651.2,403.4l2.3,24a84.452,84.452,0,0,0,12.9-13.3,83.751,83.751,0,0,0-15.2-10.7Z" fill="#394d6d"/>
        <g id="Group_361" data-name="Group 361">
          <g id="Group_360" data-name="Group 360">
            <path id="Path_453" data-name="Path 453" d="M558,424.3s-5.2,23.2-28.8,30.8c0,0,35.6,26.5,58.3-9.7l-2.2-23.7Z" fill="#394d6d"/>
          </g>
          <path id="Path_454" data-name="Path 454" d="M544,437.3s-3.4,7.7-10.8,6.1a7.493,7.493,0,0,1-1.6-.5A78.326,78.326,0,0,1,508,429a76.192,76.192,0,0,1,20.5-18.1,10.926,10.926,0,0,1,1.5-.8c7-2.9,11.8,4,11.8,4-6,3.2-9.6,7.8-9.2,12.5S537.5,435.2,544,437.3Z" fill="#394d6d"/>
        </g>
        <g id="Group_364" data-name="Group 364">
          <g id="Group_363" data-name="Group 363">
            <g id="Group_362" data-name="Group 362">
              <path id="Path_455" data-name="Path 455" d="M613.3,391s-2.5,5.8-17.8,11.3c-15.5,5.5-29.1-2.7-29.1-2.7l-12.7,8.8c2.9,2.7,15.4,10.7,41.6,6.2,26.4-4.5,34.1-20.3,34.1-20.3Z" fill="#731bde"/>
            </g>
            <path id="Path_456" data-name="Path 456" d="M560,372.5c11.5-9.2,11.6,6.8,9.1,19.6a.1.1,0,0,1,.1.1l.2.2c.2.1.3.2.5.3.3.2.7.4,1,.6a21.169,21.169,0,0,0,2.1,1.1,27.529,27.529,0,0,0,4.5,1.7,25.57,25.57,0,0,0,4.8,1,4.868,4.868,0,0,0,1.2.1h3l.6-.1-.6.1-.3.1-.3.1-.6.1-.6.1h-.6l-.6.1c-.4,0-.8.1-1.3.1a29.02,29.02,0,0,1-5.1-.2,27.841,27.841,0,0,1-5-1.1,22.511,22.511,0,0,1-2.4-.8c-.4-.2-.8-.3-1.2-.5-.1,0-.1-.1-.2-.1l-.6,2.1.3.1a36.379,36.379,0,0,0,16.6,3.6,40,40,0,0,0,9.7-1.5c7.6-2.3,11.7-5.1,13.7-7.1a8.786,8.786,0,0,0,2.6-3.7l.1-.5c-.6-.4-1.2-.9-1.8-1.3-5.5,6.7-15,9.1-15,9.1,10.4-5.8,10.9-10.6,10.9-10.6-7.5,8.1-13.4,8.7-13.4,8.7,8.7-2.9,10.7-11.6,11-12.9-6.8-6.8-13.1-15.3-20.6-22.2-10.9-10.1-23.3,5.4-28.2,10.6-5,5.2-9.9-1.8-9.9-1.8C543.8,369.4,546.5,383.3,560,372.5Z" fill="#731bde"/>
          </g>
        </g>
        <path id="Path_457" data-name="Path 457" d="M543.5,418.5s-8.2,7.5,1.3,14.2,9.5-8.6,9.5-8.6Z" fill="#394d6d"/>
        <path id="Path_458" data-name="Path 458" d="M646.3,400.9a114.053,114.053,0,0,0-16.9-6.6,27.563,27.563,0,0,1-12.7,18h0a8.079,8.079,0,0,1,3.7,6.1,8.184,8.184,0,0,1-16.3,1.5,9.629,9.629,0,0,1,.4-3.4h0a106.122,106.122,0,0,1-20.7,2.9h-.2c-14.4,1.4-27.7-4.9-33.2-8a92.748,92.748,0,0,0-6.9,7.1l1.3,14.2c16.1,12.6,33.7,19.6,57.5,17.3,16.7-1.6,33.5-9.3,46.8-19.2Z" fill="#394d6d"/>
      </g>
      <path id="Path_459" data-name="Path 459" d="M380.1,507.1h0S405.5,447.9,502,429c0,0-85.6-11.5-140.4,75.6V468.2a8.11,8.11,0,0,0-8-8.1H345v84.8h16.6V520.8a2.986,2.986,0,0,1,2.6-3.2c2.1,0,4.2,1.9,6.4,5.6l11.7,21.7h20l-22.2-37.8Z" fill="#731bde"/>
      <path id="Path_460" data-name="Path 460" d="M213.6,478.8H202.4q-33.15,0-33.9,31.9v34.1h16.8V510.5c0-9.6,4.6-14.5,13.8-14.5h4.7C205.8,488.3,209.3,482.7,213.6,478.8Z" fill="#731bde"/>
      <g id="Group_366" data-name="Group 366">
        <path id="Path_461" data-name="Path 461" d="M562.1,526.8l-13.2-42.4h-11l-13.1,42.4-12.3-42.4h-12L518,543.9h11.8l13.3-42,13.3,42h11.4l17.3-59.5H574.2Z" fill="#394d6d"/>
        <rect id="Rectangle_659" data-name="Rectangle 659" width="11.5" height="59.5" transform="translate(592.7 484.4)" fill="#394d6d"/>
        <path id="Path_462" data-name="Path 462" d="M598.6,460.2a7.512,7.512,0,0,0-7.6,7.5,7.254,7.254,0,0,0,2.2,5.3,7.531,7.531,0,1,0,10.7-10.6,7.671,7.671,0,0,0-5.3-2.2Z" fill="#731bde"/>
        <path id="Path_463" data-name="Path 463" d="M658.8,492v-7.6H615.1v11h27.8l-29.1,40.8v7.7h46.1v-11H629.6Z" fill="#394d6d"/>
        <path id="Path_464" data-name="Path 464" d="M712.9,492.9c-5.1-6.7-12.2-10-21.3-10a28.733,28.733,0,0,0-21.3,9.1,32.4,32.4,0,0,0,0,44.4,28.732,28.732,0,0,0,21.3,9.1c9,0,16.2-3.4,21.3-10V544h11.5V484.5H712.9Zm0,21.2a19.646,19.646,0,0,1-20,20.1,19.08,19.08,0,0,1-14.2-5.8A20.1,20.1,0,0,1,692.9,494a19.148,19.148,0,0,1,14.3,5.8,19.608,19.608,0,0,1,5.7,14.3Z" fill="#394d6d"/>
        <path id="Path_465" data-name="Path 465" d="M765.7,483.3H765c-8,0-13.8,2.9-17.4,8.8v-7.7H736.1v59.5h11.5V512.4c0-6.1,1.7-10.6,5.1-13.3a17.643,17.643,0,0,1,11.2-3.8h1.8v-12Z" fill="#394d6d"/>
        <path id="Path_466" data-name="Path 466" d="M816.8,461.1v31.8c-5.1-6.7-12.2-10-21.3-10a28.733,28.733,0,0,0-21.3,9.1,32.4,32.4,0,0,0,0,44.4,28.732,28.732,0,0,0,21.3,9.1c9,0,16.2-3.4,21.3-10V544h11.5V461.2H816.8Zm0,53a19.646,19.646,0,0,1-20,20.1,19.08,19.08,0,0,1-14.2-5.8A20.1,20.1,0,0,1,796.8,494a19.148,19.148,0,0,1,14.3,5.8A19.608,19.608,0,0,1,816.8,514.1Z" fill="#394d6d"/>
      </g>
      <path id="Path_467" data-name="Path 467" d="M185.2,544.8V510.5c0-9.6,4.6-14.5,13.8-14.5,0,0-30.7-1.5-30.7,19.2v29.5h16.9Z" fill="url(#radial-gradient)"/>
      <path id="Path_468" data-name="Path 468" d="M240.1,546.3c18.6,0,28.7-10,29.9-29.8-4.7-27.5-29.9-24.1-29.9-24.1,8.5,0,12.7,6.4,12.7,19.2-.1,13.1-4.4,19.8-12.8,19.8a10.962,10.962,0,0,1-9.9-5.3L216,535.5C220.9,542.7,228.9,546.3,240.1,546.3Z" fill="url(#radial-gradient-2)"/>
      <path id="Path_469" data-name="Path 469" d="M380.1,507.1s-8.7,17.4-3.8,26.6,6,11.1,6,11.1h20Z" fill="url(#radial-gradient-3)"/>
      <path id="Path_470" data-name="Path 470" d="M323.9,524.6a7.358,7.358,0,0,0-5.6,2.4,12.892,12.892,0,0,1-10,4.7c-9.2.1-13.8-6.5-13.8-19.6s4.4-19.7,13.1-19.7c0,0-26.7-2.1-29.7,24.4,1.7,19.6,11.9,29.5,30.4,29.5,15.3.4,25.1-8.2,28.1-21.7H323.9Z" fill="url(#radial-gradient-4)"/>
      <path id="Path_471" data-name="Path 471" d="M494.6,531.4V544a93.307,93.307,0,0,1-17.5-.1c-6.2-.6-9.2-4.5-9.1-11.8V509.5a12.291,12.291,0,0,1,12.3-12.3h4.3v30c0,2.7,1.6,4.2,4.9,4.2h5.1Z" fill="url(#radial-gradient-5)"/>
      <path id="Path_472" data-name="Path 472" d="M459.3,524.6H447.1a7.075,7.075,0,0,0-5.6,2.4,15.334,15.334,0,0,1-10.7,4.7c-8.1,0-12.5-5.1-13.1-15.2,0,0-4.3,28.5,21.5,28.9C450,543,456.4,535.8,459.3,524.6Z" fill="url(#radial-gradient-6)"/>
      <path id="Path_473" data-name="Path 473" d="M417.9,504.6s-.6,8.9-.2,11.9h42.7l-17.6-11.9Z" fill="url(#radial-gradient-7)"/>
      <path id="Path_474" data-name="Path 474" d="M361.7,468.1a8.11,8.11,0,0,0-8-8.1h-8.6v47.8c0,18.5,16.6-3.2,16.6-3.2Z" fill="url(#radial-gradient-8)"/>
    </g>
  </g>
</svg>
