<svg xmlns="http://www.w3.org/2000/svg" xmlns:xlink="http://www.w3.org/1999/xlink" width="571.892" height="160.233" viewBox="0 0 571.892 160.233">
  <defs>
    <filter id="Path_380" x="38" y="0" width="533.892" height="160.233" filterUnits="userSpaceOnUse">
      <feOffset dy="3" input="SourceAlpha"/>
      <feGaussianBlur stdDeviation="3" result="blur"/>
      <feFlood flood-color="#731bde" flood-opacity="0.502"/>
      <feComposite operator="in" in2="blur"/>
      <feComposite in="SourceGraphic"/>
    </filter>
    <filter id="Path_381" x="0" y="0" width="533.892" height="160.233" filterUnits="userSpaceOnUse">
      <feOffset dy="3" input="SourceAlpha"/>
      <feGaussianBlur stdDeviation="3" result="blur-2"/>
      <feFlood flood-color="#731bde" flood-opacity="0.502"/>
      <feComposite operator="in" in2="blur-2"/>
      <feComposite in="SourceGraphic"/>
    </filter>
  </defs>
  <g id="Group_380" data-name="Group 380" transform="translate(-671.369 -660.847)">
    <g transform="matrix(1, 0, 0, 1, 671.37, 660.85)" filter="url(#Path_380)">
      <path id="Path_380-2" data-name="Path 380" d="M1111.814,352.643s-20.149,4.264-50.705,21.095-33.375-49.486-83.845-60.067-87.267,68-121.542,76.749S804.9,343.385,749,329.112,626,367.1,626,367.1l-7.631,67.99,346.525,5.39s187.9,44.663,167.873-23.1S1111.814,352.643,1111.814,352.643Z" transform="translate(-571.37 -306.69)" fill="rgba(115,27,222,0.12)"/>
    </g>
    <g transform="matrix(1, 0, 0, 1, 671.37, 660.85)" filter="url(#Path_381)">
      <path id="Path_381-2" data-name="Path 381" d="M1111.814,352.643s-20.149,4.264-50.705,21.095-33.375-49.486-83.845-60.067-87.267,68-121.542,76.749S804.9,343.385,749,329.112,626,367.1,626,367.1l-7.631,67.99,346.525,5.39s187.9,44.663,167.873-23.1S1111.814,352.643,1111.814,352.643Z" transform="translate(-609.37 -306.69)" fill="rgba(115,27,222,0.09)"/>
    </g>
  </g>
</svg>
