<svg xmlns="http://www.w3.org/2000/svg" width="70.627" height="70.58" viewBox="0 0 70.627 70.58">
  <circle id="Ellipse_205" data-name="Ellipse 205" cx="34" cy="34" r="34" transform="translate(1.313 1.313)" fill="#fff"/>
  <g id="Group_380" data-name="Group 380" transform="translate(-1449 -1268)">
    <path id="Path_424" data-name="Path 424" d="M1449,1303.313l7.949,7.964,7.985-7.964-7.985-8.033Z"/>
    <path id="Path_425" data-name="Path 425" d="M1449,1303.313l7.97,7.938,7.964-7.938-7.964-7.981Z" transform="translate(54.693)"/>
    <path id="Path_426" data-name="Path 426" d="M1448.831,1303.313l8.129,8.055,8.129-8.055-8.129-8.177Z" transform="translate(27.346 0.014)"/>
    <path id="Path_427" data-name="Path 427" d="M1449.3,1303.911l21.623,21.656,21.83-21.719-8.025-7.9-13.805,13.691-13.63-13.691Z" transform="translate(13.346 13.014)"/>
    <path id="Path_428" data-name="Path 428" d="M1449.3,1303.911l21.623,21.656,21.83-21.719-8.025-7.9-13.805,13.691-13.63-13.691Z" transform="translate(2955.339 2593.567) rotate(180)"/>
  </g>
</svg>
