<svg xmlns="http://www.w3.org/2000/svg" width="93" height="84.107" viewBox="0 0 93 84.107">
  <circle id="Ellipse_7" data-name="Ellipse 7" cx="34" cy="34" r="34" transform="translate(10 8.617)" fill="#fff"/>
  <g id="shopping-cart" transform="translate(0 0)">
    <path id="Path_7" data-name="Path 7" d="M386.84,421.681a.84.84,0,1,0-.84-.84A.841.841,0,0,0,386.84,421.681Zm0,0" transform="translate(-353.559 -384.701)"/>
    <path id="Path_8" data-name="Path 8" d="M220.84,421.681a.84.84,0,1,0-.84-.84A.841.841,0,0,0,220.84,421.681Zm0,0" transform="translate(-201.51 -384.701)"/>
    <path id="Path_9" data-name="Path 9" d="M42.853,10.409a.84.84,0,0,0-.663-.323H11.934L10.018,1.944A2.513,2.513,0,0,0,7.564,0H2.521a2.521,2.521,0,0,0,0,5.043H5.567l6.266,26.631a2.513,2.513,0,0,0,2.454,1.944h1.683a4.2,4.2,0,1,0,6.719,0h7.232a4.2,4.2,0,1,0,6.719,0h0a2.521,2.521,0,1,0,0-5.043H16.285l-.791-3.362H37.516a2.519,2.519,0,0,0,2.446-1.91L43.006,11.13a.84.84,0,0,0-.153-.721Zm-3,6.4H34.486l.63-5.043h6ZM29.92,18.49h2.662l-.63,5.043H27.4V21.011a.84.84,0,0,0-1.681,0v2.521H21.165l-.63-5.043H23.2a.84.84,0,1,0,0-1.681H20.324l-.63-5.043h6.024v2.521a.84.84,0,0,0,1.681,0V11.767h6.024l-.63,5.043H29.92a.84.84,0,1,0,0,1.681ZM15.1,23.533,13.911,18.49H18.84l.63,5.043ZM18,11.767l.63,5.043H13.516L12.33,11.767Zm3.852,24.373a2.521,2.521,0,1,1-2.521-2.521A2.524,2.524,0,0,1,21.852,36.139Zm13.951,0a2.521,2.521,0,1,1-2.521-2.521A2.524,2.524,0,0,1,35.8,36.139Zm.84-5.883a.84.84,0,1,1,0,1.681H14.288a.838.838,0,0,1-.818-.648L6.9,3.362H2.521a.84.84,0,0,1,0-1.681H7.564a.838.838,0,0,1,.818.648l5.226,22.212v0l1.344,5.71ZM38.332,22.9a.84.84,0,0,1-.816.637h-3.87l.63-5.043h5.158Zm0,0"/>
    <path id="Path_10" data-name="Path 10" d="M306.84,200a.84.84,0,1,0,.84.84A.841.841,0,0,0,306.84,200Zm0,0" transform="translate(-280.282 -183.191)"/>
  </g>
  <g id="box" transform="translate(53.001 17.617)">
    <path id="Path_11" data-name="Path 11" d="M246.781,352a.781.781,0,1,0,.781.781A.782.782,0,0,0,246.781,352Zm0,0" transform="translate(-226.782 -324.5)"/>
    <path id="Path_12" data-name="Path 12" d="M40,15.786a.782.782,0,0,0-.442-.709L26.589,8.827a.782.782,0,0,0-.688,0L23.125,10.22V.781A.781.781,0,0,0,22.343,0H17.656a.781.781,0,0,0-.781.781V10.22L14.1,8.832a.782.782,0,0,0-.688,0L.442,15.077a.781.781,0,0,0,.01,1.412l5.2,2.417-5.2,2.417a.781.781,0,0,0-.01,1.412l6.276,3.025v7.209a.781.781,0,0,0,.432.7l12.5,6.25.022.009.036.016.059.021.036.011c.022.005.043.01.065.013l.033.006A.784.784,0,0,0,19.99,40H20a.784.784,0,0,0,.1-.007l.025,0c.024,0,.049-.009.073-.015l.033-.01c.021-.006.042-.014.062-.022l.035-.015.021-.009,12.5-6.25a.781.781,0,0,0,.432-.7V25.76l6.276-3.025a.781.781,0,0,0-.01-1.412l-5.2-2.417,5.2-2.417a.781.781,0,0,0,.452-.7ZM18.437,1.562h3.125V12.656a.781.781,0,0,0,.781.781h.782L20,17.6l-2.784-3.712-.341-.455h.782a.781.781,0,0,0,.781-.781ZM20,24.282,9.247,18.906l7.11-3.555,3.018,4.024a.781.781,0,0,0,1.25,0l3.018-4.024,7.11,3.555ZM13.743,10.4l2.947,1.473H15.312a.781.781,0,0,0-.625,1.25l.717.956L7.488,18.039l-4.881-2.27ZM7.488,19.773l10.765,5.383-4.51,2.255L2.607,22.043ZM31.718,32.485,20.781,37.954V31.406a.781.781,0,0,0-1.562,0v6.548L8.281,32.485V26.512l5.129,2.472a.782.782,0,0,0,.689,0l5.9-2.95,5.9,2.95a.782.782,0,0,0,.688,0l5.13-2.472ZM26.256,27.41l-4.51-2.255,10.765-5.383,4.881,2.27Zm6.256-9.372L24.6,14.08l.717-.956a.781.781,0,0,0-.625-1.25H23.309L26.256,10.4l11.137,5.367Zm0,0" transform="translate(0)"/>
  </g>
  <g id="call-center" transform="translate(16.97 49.127)">
    <path id="Path_13" data-name="Path 13" d="M260.714,221.366a.683.683,0,1,0-.683-.683A.684.684,0,0,0,260.714,221.366Zm0,0" transform="translate(-242.266 -204.969)"/>
    <path id="Path_14" data-name="Path 14" d="M160.714,221.366a.683.683,0,1,0-.683-.683A.684.684,0,0,0,160.714,221.366Zm0,0" transform="translate(-149.098 -204.969)"/>
    <path id="Path_15" data-name="Path 15" d="M0,32.8v1.5a.683.683,0,0,0,.683.683H29.378a.683.683,0,0,0,.683-.683V32.8a6.515,6.515,0,0,0-4.351-6.259,4.793,4.793,0,0,0,1.641-3.61.683.683,0,0,0-.683-.683,3.447,3.447,0,0,1-3.362-2.7h1.975a2.051,2.051,0,0,0,2.047-2.05V14.348a2.053,2.053,0,0,0-1.366-1.932V10.932a10.931,10.931,0,0,0-21.863,0v1.485a2.054,2.054,0,0,0-1.366,1.931V17.49a2.053,2.053,0,0,0,2.052,2.05h1.97a3.444,3.444,0,0,1-3.359,2.7.683.683,0,0,0-.683.683,4.794,4.794,0,0,0,1.646,3.614A6.561,6.561,0,0,0,0,32.8Zm25.928-9.244a3.424,3.424,0,0,1-2.1,2.555l-4.139-.537-.442-1.728A8.171,8.171,0,0,0,22.251,20.7a4.83,4.83,0,0,0,3.676,2.852ZM20.508,12.3a3.449,3.449,0,0,1-3.423-3.466.683.683,0,0,0-1.366,0A3.449,3.449,0,0,1,12.3,12.3H8.2a6.832,6.832,0,0,1,13.664,0ZM8.2,13.664h4.1A4.783,4.783,0,0,0,16.4,11.317a4.783,4.783,0,0,0,4.106,2.347h1.354v3.143a6.832,6.832,0,0,1-13.664,0Zm3.889,10.8a8.227,8.227,0,0,0,5.9-.005l.434,1.7a3.416,3.416,0,0,1-6.769,0Zm13.875-6.97a.683.683,0,0,1-.681.683H23.229V13.664h2.052a.683.683,0,0,1,.681.683ZM15.033,1.367A9.575,9.575,0,0,1,24.6,10.932V12.3H23.231a8.2,8.2,0,0,0-16.4,0H5.466V10.932a9.562,9.562,0,0,1,9.567-9.565ZM4.1,17.49V14.348a.686.686,0,0,1,.685-.683H6.832v4.509H4.785A.685.685,0,0,1,4.1,17.49ZM7.811,20.7a8.253,8.253,0,0,0,3.022,3.15l-.44,1.722-4.15.539a3.426,3.426,0,0,1-2.105-2.556A4.827,4.827,0,0,0,7.811,20.7ZM6.17,27.5l.075-.01h0l4.176-.542a4.784,4.784,0,0,0,9.231,0l4.253.552a5.234,5.234,0,0,1,4.787,5.3v.818H1.366V32.8a5.271,5.271,0,0,1,4.8-5.3Zm0,0"/>
    <path id="Path_16" data-name="Path 16" d="M187.95,290.988a4.3,4.3,0,0,0,3.617.017.683.683,0,0,0-.57-1.242,2.931,2.931,0,0,1-2.465-.011.683.683,0,0,0-.583,1.236Zm0,0" transform="translate(-174.744 -269.895)"/>
    <path id="Path_17" data-name="Path 17" d="M300.714,447.366h2.733a.683.683,0,0,0,0-1.366h-2.733a.683.683,0,0,0,0,1.366Zm0,0" transform="translate(-279.533 -415.529)"/>
    <path id="Path_18" data-name="Path 18" d="M380.683,446a.683.683,0,1,1-.683.683A.684.684,0,0,1,380.683,446Zm0,0" transform="translate(-354.038 -415.529)"/>
  </g>
</svg>
