<svg xmlns="http://www.w3.org/2000/svg" width="72.129" height="75.531" viewBox="0 0 72.129 75.531">
  <g id="Group_400" data-name="Group 400" transform="translate(2.816 0.976)">
    <circle id="Ellipse_205" data-name="Ellipse 205" cx="34" cy="34" r="34" transform="translate(1.313 1.313)" fill="#fff"/>
    <g id="Group_380" data-name="Group 380" transform="translate(-1451.817 -1268.977)">
      <path id="Path_424" data-name="Path 424" d="M1449,1299.318l4,4.006,4.017-4.006-4.017-4.041Z" transform="translate(0 -14.064)"/>
      <path id="Path_425" data-name="Path 425" d="M1449,1299.344l4.009,3.993,4.006-3.993-4.006-4.015Z" transform="translate(26.472 -14.09)"/>
      <path id="Path_426" data-name="Path 426" d="M1448.83,1299.246l4.089,4.052,4.089-4.052-4.089-4.113Z" transform="translate(13.32 -13.985)"/>
      <path id="Path_427" data-name="Path 427" d="M1449.3,1299.953l10.359,10.894,10.458-10.926-3.844-3.974-6.614,6.887-6.53-6.887Z" transform="translate(6.565 -8.359)"/>
      <path id="Path_428" data-name="Path 428" d="M0,4.006,10.359,14.9,20.817,3.974,16.973,0,10.359,6.887,3.829,0Z" transform="translate(1476.652 1282.901) rotate(180)"/>
    </g>
  </g>
  <g id="Group_401" data-name="Group 401" transform="translate(144.823 -2.023)">
    <g id="okex" transform="translate(-102 5)">
      <rect id="Rectangle_676" data-name="Rectangle 676" width="10" height="10" rx="1" transform="translate(-0.007 0)"/>
      <rect id="Rectangle_677" data-name="Rectangle 677" width="8" height="8" rx="1" transform="translate(9.993 10)"/>
      <rect id="Rectangle_679" data-name="Rectangle 679" width="10" height="10" rx="1" transform="translate(-0.007 17)"/>
      <rect id="Rectangle_680" data-name="Rectangle 680" width="10" height="10" rx="1" transform="translate(16.993 17)"/>
      <rect id="Rectangle_678" data-name="Rectangle 678" width="10" height="10" rx="1" transform="translate(16.993 0)"/>
    </g>
  </g>
  <g id="kucoin" transform="translate(-4019.616 3245.977)">
    <path id="Path_424-2" data-name="Path 424" d="M-.326,2.786A2.5,2.5,0,0,1,2.41.3,2.537,2.537,0,0,1,5.173,2.786L5.139,24.56A2.933,2.933,0,0,1,2.323,27.1,2.782,2.782,0,0,1-.384,24.56Z" transform="translate(4023.899 -3201.391)"/>
    <path id="Path_425-2" data-name="Path 425" d="M.058,2.491A2.5,2.5,0,0,1,2.793,0,2.537,2.537,0,0,1,5.557,2.491L5.522,24.264A2.933,2.933,0,0,1,2.707,26.8,2.782,2.782,0,0,1,0,24.264Z" transform="translate(4023.184 -3189.397) rotate(-45)"/>
    <path id="Path_426-2" data-name="Path 426" d="M.058,2.491A2.5,2.5,0,0,1,2.793,0,2.537,2.537,0,0,1,5.557,2.491L5.522,24.264A2.933,2.933,0,0,1,2.707,26.8,2.782,2.782,0,0,1,0,24.264Z" transform="translate(4027.445 -3182.12) rotate(-135)"/>
    <path id="Path_427-2" data-name="Path 427" d="M0,0,5.9,1.478l-.24,11.264a2.933,2.933,0,0,1-2.815,2.536A2.761,2.761,0,0,1,.115,12.827Z" transform="translate(4039.091 -3199.998) rotate(-46)"/>
    <path id="Path_428-2" data-name="Path 428" d="M.33,0,5.507,1.118l.039,11a2.933,2.933,0,0,1-2.815,2.536A2.761,2.761,0,0,1,0,12.2Z" transform="translate(4043.833 -3171.794) rotate(-136)"/>
    <ellipse id="Ellipse_205-2" data-name="Ellipse 205" cx="2.813" cy="2.813" rx="2.813" ry="2.813" transform="translate(4039.572 -3190.536)"/>
  </g>
  <g id="huobi" transform="translate(-4121.854 3324.688)">
    <path id="Path_429" data-name="Path 429" d="M4177.443-3253.352c-1.408-.052-9.131-3.63-9.5-11.21s6.435-12.016,7.711-14.045a32.422,32.422,0,0,0,2.712-5.925c.54-1.461.522-5.437.633-5.5a14.54,14.54,0,0,1,3.777,6.113c.6,2.83.978,4.53.6,6.66s-2.734,4.716-4.631,7.5-2.452,3.243-3.569,7.015S4178.851-3253.3,4177.443-3253.352Z" transform="translate(0.001 -0.01)"/>
    <path id="Path_430" data-name="Path 430" d="M4199.51-3233.959a8.982,8.982,0,0,1-3.292-6.98c.189-4.107,2.928-7.384,4.489-9.922a24.85,24.85,0,0,0,2.24-5.035c.128-.182,5.748,5.286,4.669,11.561-.79,6.16-5.761,8.355-6.86,9.1S4199.664-3233.947,4199.51-3233.959Z" transform="translate(-16.083 -19.416)"/>
  </g>
</svg>
