<svg xmlns="http://www.w3.org/2000/svg" width="68" height="68" viewBox="0 0 68 68">
  <g id="Group_402" data-name="Group 402" transform="translate(-1.313 -1.313)">
    <circle id="Ellipse_205" data-name="Ellipse 205" cx="34" cy="34" r="34" transform="translate(1.313 1.313)" fill="#fff"/>
  </g>
  <g id="huobi" transform="translate(-4152.436 3295.449)">
    <path id="Path_429" data-name="Path 429" d="M4182.763-3232.846c-2.2-.081-14.235-5.66-14.813-17.477s10.032-18.733,12.022-21.9a50.576,50.576,0,0,0,4.228-9.237c.841-2.278.813-8.476.987-8.576s4.957,5.12,5.888,9.531,1.524,7.062.93,10.383-4.262,7.353-7.22,11.69-3.823,5.055-5.564,10.937S4184.958-3232.766,4182.763-3232.846Z" transform="translate(0 -0.01)"/>
    <path id="Path_430" data-name="Path 430" d="M4201.354-3221.694c-.24-.018-5.426-4.478-5.132-10.882s4.565-11.512,7-15.468a38.728,38.728,0,0,0,3.492-7.851c.2-.283,8.961,8.241,7.28,18.023-1.231,9.6-8.982,13.026-10.7,14.192S4201.595-3221.675,4201.354-3221.694Z" transform="translate(-9.263 -11.183)"/>
  </g>
</svg>
