<svg xmlns="http://www.w3.org/2000/svg" width="68" height="68" viewBox="0 0 68 68">
  <g id="Group_402" data-name="Group 402" transform="translate(-1.313 -1.313)">
    <circle id="Ellipse_205" data-name="Ellipse 205" cx="34" cy="34" r="34" transform="translate(1.313 1.313)" fill="#fff"/>
  </g>
  <g id="kucoin" transform="translate(-4015.39 3209.787)">
    <path id="Path_424" data-name="Path 424" d="M-.285,4.507A4.234,4.234,0,0,1,4.339.3,4.29,4.29,0,0,1,9.012,4.507L8.954,41.323s-.626,4.288-4.76,4.288S-.384,41.323-.384,41.323Z" transform="translate(4024.129 -3198.693)"/>
    <path id="Path_425" data-name="Path 425" d="M.1,4.212A4.234,4.234,0,0,1,4.723,0,4.29,4.29,0,0,1,9.4,4.212L9.338,41.028s-.626,4.288-4.76,4.288S0,41.028,0,41.028Z" transform="translate(4023.184 -3178.617) rotate(-45)"/>
    <path id="Path_426" data-name="Path 426" d="M.1,4.212A4.234,4.234,0,0,1,4.723,0,4.29,4.29,0,0,1,9.4,4.212L9.338,41.028s-.626,4.288-4.76,4.288S0,41.028,0,41.028Z" transform="translate(4030.389 -3166.313) rotate(-135)"/>
    <path id="Path_427" data-name="Path 427" d="M0,0,9.979,2.5,9.573,21.545s-.626,4.288-4.76,4.288S.194,21.688.194,21.688Z" transform="translate(4050.081 -3196.542) rotate(-46)"/>
    <path id="Path_428" data-name="Path 428" d="M.558,0,9.312,1.89l.067,18.6s-.626,4.288-4.76,4.288S0,20.635,0,20.635Z" transform="translate(4058.099 -3148.853) rotate(-136)"/>
    <ellipse id="Ellipse_205-2" data-name="Ellipse 205" cx="4.756" cy="4.756" rx="4.756" ry="4.756" transform="translate(4050.894 -3180.543)"/>
  </g>
</svg>
