<svg xmlns="http://www.w3.org/2000/svg" width="76.161" height="70.893" viewBox="0 0 76.161 70.893">
  <circle id="Ellipse_7" data-name="Ellipse 7" cx="34" cy="34" r="34" transform="translate(8.161 2.893)" fill="#fff"/>
  <g id="shopping-cart" transform="translate(0 0)">
    <path id="Path_7" data-name="Path 7" d="M387.394,422.787A1.394,1.394,0,1,0,386,421.394,1.394,1.394,0,0,0,387.394,422.787Zm0,0" transform="translate(-332.207 -361.469)"/>
    <path id="Path_8" data-name="Path 8" d="M221.394,422.787A1.394,1.394,0,1,0,220,421.394,1.394,1.394,0,0,0,221.394,422.787Zm0,0" transform="translate(-189.341 -361.469)"/>
    <path id="Path_9" data-name="Path 9" d="M71.057,17.26a1.393,1.393,0,0,0-1.1-.536H19.789l-3.176-13.5A4.166,4.166,0,0,0,12.542,0H4.181a4.181,4.181,0,0,0,0,8.362h5.05l10.39,44.16a4.166,4.166,0,0,0,4.07,3.223h2.791a6.968,6.968,0,1,0,11.141,0H49.616a6.968,6.968,0,1,0,11.141,0h0a4.181,4.181,0,1,0,0-8.362H27l-1.312-5.574H62.208a4.177,4.177,0,0,0,4.057-3.167l5.046-20.186a1.394,1.394,0,0,0-.254-1.2ZM66.083,27.872h-8.9l1.045-8.362h9.945ZM49.612,30.66h4.414l-1.045,8.362H45.431V34.84a1.394,1.394,0,0,0-2.787,0v4.181H35.095L34.05,30.66h4.414a1.394,1.394,0,0,0,0-2.787H33.7l-1.045-8.362h9.988v4.181a1.394,1.394,0,0,0,2.787,0V19.511H55.42l-1.045,8.362H49.612a1.394,1.394,0,0,0,0,2.787ZM25.035,39.021,23.068,30.66h8.173l1.045,8.362Zm4.812-19.51,1.045,8.362H22.412l-1.967-8.362Zm6.387,40.414a4.181,4.181,0,1,1-4.181-4.181A4.185,4.185,0,0,1,36.234,59.925Zm23.134,0a4.181,4.181,0,1,1-4.181-4.181A4.185,4.185,0,0,1,59.368,59.925Zm1.394-9.755a1.394,1.394,0,1,1,0,2.787H23.691a1.389,1.389,0,0,1-1.357-1.075L11.439,5.575H4.181a1.394,1.394,0,0,1,0-2.787h8.362A1.389,1.389,0,0,1,13.9,3.862l8.666,36.832,0,.007L24.8,50.17Zm2.8-12.205a1.393,1.393,0,0,1-1.353,1.057H55.79l1.045-8.362h8.552Zm0,0" transform="translate(0 0)"/>
    <path id="Path_10" data-name="Path 10" d="M307.394,200a1.394,1.394,0,1,0,1.394,1.394A1.394,1.394,0,0,0,307.394,200Zm0,0" transform="translate(-263.356 -172.128)"/>
  </g>
</svg>
