<svg xmlns="http://www.w3.org/2000/svg" width="71.846" height="22.827" viewBox="0 0 71.846 22.827">
  <g id="Group_376" data-name="Group 376" transform="translate(-934 -544.629)">
    <path id="btc" d="M2.627,6.327c.359-.5.692-1.019,1.1-1.488A11.419,11.419,0,0,1,8.964,1.38a11.278,11.278,0,0,1,7.886.468,13.425,13.425,0,0,1,1.815,1.02,10.565,10.565,0,0,1,2.911,2.91,10.893,10.893,0,0,1,1.69,4.033,10.655,10.655,0,0,1,.21,3.093,11.419,11.419,0,0,1-2.642,6.46,11.072,11.072,0,0,1-2.379,2.114A10.724,10.724,0,0,1,16.527,22.5,10.876,10.876,0,0,1,13,23.3a11.776,11.776,0,0,1-2.571-.129,12.066,12.066,0,0,1-2.143-.581,10.659,10.659,0,0,1-1.94-.936A11.425,11.425,0,0,1,3.99,19.665a11.148,11.148,0,0,1-1.9-2.853,11.342,11.342,0,0,1-1.04-4.671A12.534,12.534,0,0,1,1.2,10.315a.87.87,0,0,0,0-.133c.072-.044.065-.122.078-.189a11.345,11.345,0,0,1,.9-2.74,6.611,6.611,0,0,0,.449-.926Zm13.1,6.016a3.974,3.974,0,0,0,.821-.458,2.25,2.25,0,0,0-.314-3.527,9.44,9.44,0,0,0-1.431-.693c.085-.685.359-1.326.447-2.028a9.551,9.551,0,0,0-1.229-.288l-.5,1.946a4.32,4.32,0,0,1-.936-.255c.107-.669.361-1.3.431-1.968A11.359,11.359,0,0,0,11.8,4.817l-.492,1.963c-.835-.128-1.6-.415-2.443-.57a5.182,5.182,0,0,0-.341,1.317l.751.178c.6.139.768.469.625,1-.1.375-.194.753-.288,1.13Q9.109,11.867,8.6,13.9a.444.444,0,0,1-.577.359,5.033,5.033,0,0,0-.93-.172,12.91,12.91,0,0,0-.539,1.393l2.388.608c-.061.707-.354,1.355-.441,2.067l1.188.285c.263-.653.323-1.339.569-2.015.3.152.623.108.912.3L10.7,18.682A12.507,12.507,0,0,0,11.946,19l.492-1.971A.321.321,0,0,1,12.677,17a6.179,6.179,0,0,0,1.985.1,2.346,2.346,0,0,0,1.495-.715,3.184,3.184,0,0,0,.794-1.7,1.993,1.993,0,0,0-.235-1.491,2.544,2.544,0,0,0-.986-.849Zm-4.745,2.682a5.8,5.8,0,0,0,2.466.261,1.086,1.086,0,0,0,.93-.767,1.116,1.116,0,0,0-.264-1.157,2.846,2.846,0,0,0-1.194-.689,6.475,6.475,0,0,0-1.628-.394l-.649,2.64c.139.044.238.08.34.105Zm2.86-3.736a1.1,1.1,0,0,0,.928-.762,1.078,1.078,0,0,0-.414-1.218,3.872,3.872,0,0,0-1.51-.62,1.111,1.111,0,0,0-.64-.082l-.586,2.382a5.721,5.721,0,0,0,2.222.3Z" transform="translate(932.947 543.752)" fill="#f39321"/>
    <g id="eth" transform="translate(951.737 543.909)">
      <path id="Path_382" data-name="Path 382" d="M27.5.721l6.943,11.473L27.524,9.237,27.5.721Z" transform="translate(-9.311 -0.001)" fill="#2f3030"/>
      <path id="Path_383" data-name="Path 383" d="M11.263,12.193,18.187.72l.026,8.517-6.949,2.956Z" fill="#828384"/>
      <path id="Path_384" data-name="Path 384" d="M18.187,27.876l-6.924-4.23,6.949-2.957Z" transform="translate(0 -11.453)" fill="#343535"/>
      <path id="Path_385" data-name="Path 385" d="M34.441,23.646,27.524,20.69,27.5,27.876l6.943-4.23Z" transform="translate(-9.311 -11.453)" fill="#131313"/>
      <path id="Path_386" data-name="Path 386" d="M27.5,35.421l6.943-4.115L27.5,41.089Z" transform="translate(-9.311 -17.542)" fill="#2f3030"/>
      <path id="Path_387" data-name="Path 387" d="M18.187,35.421l-6.924-4.115,6.924,9.783Z" transform="translate(0 -17.542)" fill="#828384"/>
    </g>
    <g id="ltc" transform="translate(983.256 544.822)">
      <path id="Path_388" data-name="Path 388" d="M11.372,22.634A11.218,11.218,0,1,0,.154,11.416,11.218,11.218,0,0,0,11.372,22.634Z" transform="translate(0)" fill="#335e9f"/>
      <path id="Path_389" data-name="Path 389" d="M15.12,23.2l1.671-5.428-1.82.555.483-1.337,1.671-.519L19.46,8.789a.393.393,0,0,1,.375-.275h2.384a.392.392,0,0,1,.375.5l-1.9,6.341,1.712-.483L22.1,16.164l-1.765.533L19.1,20.635h6.277a.285.285,0,0,1,.275.361l-.546,2a.286.286,0,0,1-.275.208H15.12Z" transform="translate(-8.734 -4.902)" fill="#fff"/>
    </g>
  </g>
</svg>
