<svg xmlns="http://www.w3.org/2000/svg" width="324.037" height="303.815" viewBox="0 0 324.037 303.815">
  <g id="_8671494731632934035" data-name="8671494731632934035" transform="translate(64.611)">
    <g id="Group_1" data-name="Group 1" transform="translate(18.635)">
      <ellipse id="Ellipse_167" data-name="Ellipse 167" cx="15" cy="14.5" rx="15" ry="14.5" transform="translate(0.365)" fill="#e9f0ff"/>
    </g>
    <g id="Group_2" data-name="Group 2" transform="translate(0 33.24)">
      <path id="Path_388" data-name="Path 388" d="M50.9,32H15.581A15.627,15.627,0,0,0,0,47.581V94.325a5.713,5.713,0,0,0,11.426,0V50.7h3.116v116.34a8.31,8.31,0,0,0,16.62,0v-66.48h4.155v66.48a8.31,8.31,0,0,0,16.62,0V50.7h3.116V94.325a5.713,5.713,0,0,0,11.426,0V47.581A15.627,15.627,0,0,0,50.9,32Z" transform="translate(0 -32)" fill="#e9f0ff"/>
    </g>
  </g>
  <g id="_8671494731632934035-2" data-name="8671494731632934035" transform="translate(194.611)">
    <g id="Group_1-2" data-name="Group 1" transform="translate(18.635)">
      <ellipse id="Ellipse_167-2" data-name="Ellipse 167" cx="15" cy="14.5" rx="15" ry="14.5" transform="translate(0.365)" fill="#e9f0ff"/>
    </g>
    <g id="Group_2-2" data-name="Group 2" transform="translate(0 33.24)">
      <path id="Path_388-2" data-name="Path 388" d="M50.9,32H15.581A15.627,15.627,0,0,0,0,47.581V94.325a5.713,5.713,0,0,0,11.426,0V50.7h3.116v116.34a8.31,8.31,0,0,0,16.62,0v-66.48h4.155v66.48a8.31,8.31,0,0,0,16.62,0V50.7h3.116V94.325a5.713,5.713,0,0,0,11.426,0V47.581A15.627,15.627,0,0,0,50.9,32Z" transform="translate(0 -32)" fill="#e9f0ff"/>
    </g>
  </g>
  <g id="_8671494731632934035-3" data-name="8671494731632934035" transform="translate(110.998 10.904)">
    <g id="Group_1-3" data-name="Group 1" transform="translate(28.363)">
      <ellipse id="Ellipse_167-3" data-name="Ellipse 167" cx="23.298" cy="22.285" rx="23.298" ry="22.285" transform="translate(0)" fill="#731bde"/>
    </g>
    <g id="Group_2-3" data-name="Group 2" transform="translate(0 51.424)">
      <path id="Path_388-3" data-name="Path 388" d="M78.744,32H24.105A24.176,24.176,0,0,0,0,56.105v72.316a8.839,8.839,0,1,0,17.677,0V60.926H22.5V240.911a12.856,12.856,0,1,0,25.712,0V138.063h6.428V240.911a12.856,12.856,0,1,0,25.712,0V60.926h4.821v67.494a8.839,8.839,0,1,0,17.677,0V56.105A24.176,24.176,0,0,0,78.744,32Z" transform="translate(0 -32)" fill="#731bde"/>
    </g>
  </g>
  <g id="_8671494731632934035-4" data-name="8671494731632934035" transform="translate(117.611 25)">
    <g id="Group_1-4" data-name="Group 1" transform="translate(25.424)">
      <ellipse id="Ellipse_167-4" data-name="Ellipse 167" cx="20" cy="19.5" rx="20" ry="19.5" transform="translate(-0.424)" fill="#e9f0ff"/>
    </g>
    <g id="Group_2-4" data-name="Group 2" transform="translate(0 44.811)">
      <path id="Path_388-4" data-name="Path 388" d="M68.617,32H21.005A21.067,21.067,0,0,0,0,53.005V116.02a7.7,7.7,0,1,0,15.4,0V57.206h4.2V214.044a11.2,11.2,0,0,0,22.405,0V124.422h5.6v89.622a11.2,11.2,0,1,0,22.405,0V57.206h4.2V116.02a7.7,7.7,0,1,0,15.4,0V53.005A21.067,21.067,0,0,0,68.617,32Z" transform="translate(0 -32)" fill="#e9f0ff"/>
    </g>
  </g>
  <path id="Path_389" data-name="Path 389" d="M2402.353,2693.856s-36.714,21.675-31.406,52.638,51.305,73.635,145.972,74.313c85.735.614,159.243-36.714,157.473-79.179s-38.041-54.408-38.041-54.408" transform="translate(-2360.389 -2527)" fill="none" stroke="#e9f0ff" stroke-linecap="round" stroke-width="20"/>
</svg>
