<svg xmlns="http://www.w3.org/2000/svg" width="290.093" height="349.818" viewBox="0 0 290.093 349.818">
  <g id="_4977670211606062169" data-name="4977670211606062169" transform="translate(-127.982 -93.854)">
    <g id="Group_6" data-name="Group 6" transform="translate(127.982 93.854)">
      <g id="Group_5" data-name="Group 5">
        <path id="Path_393" data-name="Path 393" d="M15,79.257V214.918c0,90.441,145.046,145.9,145.046,145.9s145.046-55.459,145.046-145.9V70.725c-46.927,0-116.037-26.45-145.046-59.725C125.918,45.129,61.927,79.257,15,79.257Z" transform="translate(-15 -11)" fill="#731bde"/>
      </g>
    </g>
    <g id="Group_8" data-name="Group 8" transform="translate(273.029 93.854)">
      <g id="Group_7" data-name="Group 7">
        <path id="Path_394" data-name="Path 394" d="M32,11V360.818s145.046-55.459,145.046-145.9V70.725C130.12,70.725,61.009,44.275,32,11Z" transform="translate(-32 -11)" fill="#883ae6"/>
      </g>
    </g>
    <g id="Group_10" data-name="Group 10" transform="translate(184.294 187.707)">
      <g id="Group_9" data-name="Group 9">
        <path id="Path_395" data-name="Path 395" d="M85.591,177.285,21.6,114.147,45.49,89.4l38.395,39.248L182.858,22l25.6,23.037Z" transform="translate(-21.6 -22)" fill="#fff"/>
      </g>
    </g>
  </g>
</svg>
